{
  "accessors": [
    {
      "bufferView": 3,
      "componentType": 5126,
      "count": 21863,
      "max": [
        1.5103890895843506,
        0.8806051015853882,
        0.3611088693141937
      ],
      "min": [
        -1.5326225757598877,
        0.009388400241732597,
        -0.4805404543876648
      ],
      "type": "VEC3"
    },
    {
      "bufferView": 3,
      "byteOffset": 262356,
      "componentType": 5126,
      "count": 21863,
      "max": [
        1.0,
        1.0,
        1.0
      ],
      "min": [
        -1.0,
        -1.0,
        -1.0
      ],
      "type": "VEC3"
    },
    {
      "bufferView": 4,
      "componentType": 5126,
      "count": 21863,
      "max": [
        1.0,
        1.0,
        1.0,
        1.0
      ],
      "min": [
        -1.0,
        -1.0,
        -1.0,
        -1.0
      ],
      "type": "VEC4"
    },
    {
      "bufferView": 2,
      "componentType": 5126,
      "count": 21863,
      "max": [
        0.9957039952278137,
        0.9981039762496948
      ],
      "min": [
        0.0005130000063218176,
        0.0010520219802856445
      ],
      "type": "VEC2"
    },
    {
      "bufferView": 2,
      "byteOffset": 174904,
      "componentType": 5126,
      "count": 21863,
      "max": [
        0.9957039952278137,
        0.9981039762496948
      ],
      "min": [
        0.0005130000063218176,
        0.0010520219802856445
      ],
      "type": "VEC2"
    },
    {
      "bufferView": 1,
      "componentType": 5125,
      "count": 37029,
      "type": "SCALAR"
    },
    {
      "bufferView": 3,
      "byteOffset": 524712,
      "componentType": 5126,
      "count": 5886,
      "max": [
        0.6122047305107117,
        0.8174970149993896,
        0.08517039567232132
      ],
      "min": [
        -1.5326225757598877,
        0.21508479118347168,
        -0.09808844327926636
      ],
      "type": "VEC3"
    },
    {
      "bufferView": 3,
      "byteOffset": 595344,
      "componentType": 5126,
      "count": 5886,
      "max": [
        1.0,
        1.0,
        1.0
      ],
      "min": [
        -1.0,
        -1.0,
        -1.0
      ],
      "type": "VEC3"
    },
    {
      "bufferView": 4,
      "byteOffset": 349808,
      "componentType": 5126,
      "count": 5886,
      "max": [
        1.0,
        1.0,
        1.0,
        1.0
      ],
      "min": [
        -1.0,
        -1.0,
        -1.0,
        -1.0
      ],
      "type": "VEC4"
    },
    {
      "bufferView": 2,
      "byteOffset": 349808,
      "componentType": 5126,
      "count": 5886,
      "max": [
        0.7423179745674133,
        0.9916679859161377
      ],
      "min": [
        0.0005540000274777412,
        0.0010809898376464844
      ],
      "type": "VEC2"
    },
    {
      "bufferView": 2,
      "byteOffset": 396896,
      "componentType": 5126,
      "count": 5886,
      "max": [
        0.7423179745674133,
        0.9916679859161377
      ],
      "min": [
        0.0005540000274777412,
        0.0010809898376464844
      ],
      "type": "VEC2"
    },
    {
      "bufferView": 1,
      "byteOffset": 148116,
      "componentType": 5125,
      "count": 7326,
      "type": "SCALAR"
    },
    {
      "bufferView": 5,
      "componentType": 5126,
      "count": 2,
      "max": [
        1.0,
        0.23214119672775269,
        0.0,
        0.0,
        0.0,
        1.0,
        1.2821968198295508e-07,
        0.0,
        1.2821968198295508e-07,
        1.383669712140545e-07,
        1.0,
        0.0,
        0.0,
        2.1315416405130912e-14,
        4.3224567036759254e-08,
        1.0
      ],
      "min": [
        -5.0033500969713304e-14,
        0.0,
        -1.383669712140545e-07,
        0.0,
        -0.23214119672775269,
        6.32292273552125e-14,
        0.0,
        0.0,
        0.0,
        0.0,
        0.23214119672775269,
        0.0,
        -0.07825789600610733,
        0.0,
        0.0,
        1.0
      ],
      "type": "MAT4"
    },
    {
      "bufferView": 0,
      "componentType": 5123,
      "count": 21863,
      "type": "VEC4"
    },
    {
      "bufferView": 4,
      "byteOffset": 443984,
      "componentType": 5126,
      "count": 21863,
      "max": [
        1.0,
        0.0,
        0.0,
        0.0
      ],
      "min": [
        1.0,
        0.0,
        0.0,
        0.0
      ],
      "type": "VEC4"
    },
    {
      "bufferView": 0,
      "byteOffset": 174904,
      "componentType": 5123,
      "count": 5886,
      "type": "VEC4"
    },
    {
      "bufferView": 4,
      "byteOffset": 793792,
      "componentType": 5126,
      "count": 5886,
      "max": [
        1.0,
        0.0,
        0.0,
        0.0
      ],
      "min": [
        1.0,
        0.0,
        0.0,
        0.0
      ],
      "type": "VEC4"
    }
  ],
  "asset": {
    "extras": {
      "author": "Dreadler (https://sketchfab.com/Dreadler)",
      "license": "CC-BY-4.0 (http://creativecommons.org/licenses/by/4.0/)",
      "source": "https://sketchfab.com/3d-models/ar2-m-90528d2c7cfd432e9e605fe869dbd260",
      "title": "AR2-M"
    },
    "generator": "Sketchfab-17.3.0",
    "version": "2.0"
  },
  "bufferViews": [
    {
      "buffer": 0,
      "byteLength": 221992,
      "byteStride": 8,
      "name": "shortBufferViews",
      "target": 34962
    },
    {
      "buffer": 0,
      "byteLength": 177420,
      "byteOffset": 221992,
      "name": "floatBufferViews",
      "target": 34963
    },
    {
      "buffer": 0,
      "byteLength": 443984,
      "byteOffset": 399412,
      "byteStride": 8,
      "name": "floatBufferViews",
      "target": 34962
    },
    {
      "buffer": 0,
      "byteLength": 665976,
      "byteOffset": 843396,
      "byteStride": 12,
      "name": "floatBufferViews",
      "target": 34962
    },
    {
      "buffer": 0,
      "byteLength": 887968,
      "byteOffset": 1509372,
      "byteStride": 16,
      "name": "floatBufferViews",
      "target": 34962
    },
    {
      "buffer": 0,
      "byteLength": 128,
      "byteOffset": 2397340,
      "name": "floatBufferViews"
    }
  ],
  "buffers": [
    {
      "byteLength": 2397468,
      "uri": "scene.bin"
    }
  ],
  "extensionsUsed": [
    "KHR_materials_specular"
  ],
  "images": [
    {
      "uri": "textures/base_baseColor.jpeg"
    },
    {
      "uri": "textures/base_normal.jpeg"
    }
  ],
  "materials": [
    {
      "doubleSided": true,
      "extensions": {
        "KHR_materials_specular": {
          "specularColorFactor": [
            1.0,
            1.0,
            1.0
          ],
          "specularFactor": 0.11806040915015395
        }
      },
      "name": "base",
      "normalTexture": {
        "index": 1,
        "texCoord": 1
      },
      "pbrMetallicRoughness": {
        "baseColorTexture": {
          "index": 0
        },
        "roughnessFactor": 0.28177084317170076
      }
    }
  ],
  "meshes": [
    {
      "name": "Object_0",
      "primitives": [
        {
          "attributes": {
            "JOINTS_0": 13,
            "NORMAL": 1,
            "POSITION": 0,
            "TANGENT": 2,
            "TEXCOORD_0": 3,
            "TEXCOORD_1": 4,
            "WEIGHTS_0": 14
          },
          "indices": 5,
          "material": 0,
          "mode": 4
        }
      ]
    },
    {
      "name": "Object_1",
      "primitives": [
        {
          "attributes": {
            "JOINTS_0": 15,
            "NORMAL": 7,
            "POSITION": 6,
            "TANGENT": 8,
            "TEXCOORD_0": 9,
            "TEXCOORD_1": 10,
            "WEIGHTS_0": 16
          },
          "indices": 11,
          "material": 0,
          "mode": 4
        }
      ]
    }
  ],
  "nodes": [
    {
      "children": [
        1
      ],
      "matrix": [
        1.0,
        0.0,
        0.0,
        0.0,
        0.0,
        2.220446049250313e-16,
        -1.0,
        0.0,
        0.0,
        1.0,
        2.220446049250313e-16,
        0.0,
        0.0,
        0.0,
        0.0,
        1.0
      ],
      "name": "Sketchfab_model"
    },
    {
      "children": [
        2
      ],
      "name": "root"
    },
    {
      "children": [
        3
      ],
      "matrix": [
        1.0,
        0.0,
        0.0,
        0.0,
        0.0,
        2.220446049250313e-16,
        1.0,
        0.0,
        0.0,
        -1.0,
        2.220446049250313e-16,
        0.0,
        0.0,
        0.0,
        0.0,
        1.0
      ],
      "name": "GLTF_SceneRootNode"
    },
    {
      "children": [
        4
      ],
      "matrix": [
        4.307723045349121,
        0.0,
        0.0,
        0.0,
        0.0,
        4.307723045349121,
        0.0,
        0.0,
        0.0,
        0.0,
        4.307723045349121,
        0.0,
        0.0,
        -0.3371133506298065,
        0.0,
        1.0
      ],
      "name": "ar2m_ARM_3"
    },
    {
      "children": [
        5,
        7,
        9,
        6,
        8
      ],
      "name": "GLTF_created_0"
    },
    {
      "children": [
        10
      ],
      "name": "GLTF_created_0_rootJoint"
    },
    {
      "name": "are.smd_1"
    },
    {
      "mesh": 0,
      "name": "Object_7",
      "skin": 0
    },
    {
      "name": "blank_2"
    },
    {
      "mesh": 1,
      "name": "Object_9",
      "skin": 0
    },
    {
      "name": "Bone_0",
      "rotation": [
        1.5454414636906222e-08,
        -4.0601423734187847e-07,
        -0.7071068286895752,
        0.7071068286895752
      ]
    }
  ],
  "samplers": [
    {
      "magFilter": 9729,
      "minFilter": 9987,
      "wrapS": 10497,
      "wrapT": 10497
    }
  ],
  "scene": 0,
  "scenes": [
    {
      "name": "Sketchfab_Scene",
      "nodes": [
        0
      ]
    }
  ],
  "skins": [
    {
      "inverseBindMatrices": 12,
      "joints": [
        5,
        10
      ],
      "skeleton": 5
    }
  ],
  "textures": [
    {
      "sampler": 0,
      "source": 0
    },
    {
      "sampler": 0,
      "source": 1
    }
  ]
}
